# xmcd
#
# Track frame offsets: 
#        150
#        1179
#        15145
#        31589
#        46557
#        62635
#        78133
#        86961
#        100170
#        121094
#        136618
#        148386
#
# Disc length: 2195 seconds
#
# Revision: 0
# Processed by: cddbd v1.5.2PL0 Copyright (c) Steve Scherf et al.
# Submitted via: ExactAudioCopy v1.1
#
DISCID=7d08910c
DTITLE=Various Artist - Midnight - The Death of Hank Williams
DYEAR=2013
DGENRE=Country
TTITLE0=Introduction (Braxton Schuffert)
TTITLE1=Rockin' Chair Daddy (Jake Penrod)
TTITLE2=Church on Saturday Night (Arty Hill)
TTITLE3=Midnight (Joey Allcorn and Jake Penrod)
TTITLE4=Is There Something You Can Do (Arty Hill)
TTITLE5=The Death of Hank Williams (Joey Allcorn)
TTITLE6=Death Announcement (Nelson King)
TTITLE7=Death is Only a Dream (Joey Allcorn and Rachel Brooke)
TTITLE8=Fallen Star (Andy Norman)
TTITLE9=Song for Charles (Bobby Tomberlin)
TTITLE10=A Legend Froze in Time (David Church)
TTITLE11=Are You Sure Hank Done It This Way (Wayne Mills, Kyle Wilson 
TTITLE11=& Joey Allcorn)
EXTD=
EXTT0=
EXTT1=
EXTT2=
EXTT3=
EXTT4=
EXTT5=
EXTT6=
EXTT7=
EXTT8=
EXTT9=
EXTT10=
EXTT11=
PLAYORDER=
